<svg id="Layer_1" data-name="Layer 1" xmlns="http://www.w3.org/2000/svg" xmlns:xlink="http://www.w3.org/1999/xlink" viewBox="0 0 352.61 328.2"><defs><style>.cls-1{fill:#fffef1;}.cls-2{fill:url(#radial-gradient);}.cls-3{fill:url(#radial-gradient-2);}.cls-4{fill:url(#radial-gradient-3);}.cls-5{fill:url(#radial-gradient-4);}.cls-6{fill:url(#radial-gradient-5);}.cls-7{fill:url(#radial-gradient-6);}.cls-8{fill:url(#radial-gradient-7);}.cls-9{fill:url(#radial-gradient-8);}.cls-10{fill:url(#radial-gradient-9);}</style><radialGradient id="radial-gradient" cx="172.92" cy="161.63" r="44.3" gradientUnits="userSpaceOnUse"><stop offset="0" stop-color="#fff"/><stop offset="0.06" stop-color="#fffffe" stop-opacity="0.92"/><stop offset="0.33" stop-color="#fffff9" stop-opacity="0.6"/><stop offset="0.57" stop-color="#fffef6" stop-opacity="0.34"/><stop offset="0.76" stop-color="#fffef3" stop-opacity="0.16"/><stop offset="0.91" stop-color="#fffef2" stop-opacity="0.04"/><stop offset="1" stop-color="#fffef1" stop-opacity="0"/></radialGradient><radialGradient id="radial-gradient-2" cx="280.25" cy="74.26" r="23.15" xlink:href="#radial-gradient"/><radialGradient id="radial-gradient-3" cx="61.28" cy="249.53" r="20.13" xlink:href="#radial-gradient"/><radialGradient id="radial-gradient-4" cx="148.34" cy="22.25" r="9.72" xlink:href="#radial-gradient"/><radialGradient id="radial-gradient-5" cx="205" cy="305.95" r="9.72" xlink:href="#radial-gradient"/><radialGradient id="radial-gradient-6" cx="260.8" cy="233.24" r="5.92" xlink:href="#radial-gradient"/><radialGradient id="radial-gradient-7" cx="90.51" cy="84.21" r="5.92" xlink:href="#radial-gradient"/><radialGradient id="radial-gradient-8" cx="28.74" cy="120.62" r="12.55" xlink:href="#radial-gradient"/><radialGradient id="radial-gradient-9" cx="323.87" cy="190.37" r="12.55" xlink:href="#radial-gradient"/></defs><path class="cls-1" d="M252.62,152.1c2.36,16.9,3.6,33.81,4.44,50.71.53,8.45.65,16.91,1,25.36l.31,25.36c0,16.9-.42,33.81-1.25,50.71S255,338.05,252.62,355c-2.38-16.91-3.63-33.81-4.46-50.72s-1.29-33.81-1.26-50.71l.32-25.36c.31-8.45.43-16.91.95-25.36C249,185.91,250.25,169,252.62,152.1Z" transform="translate(-79.7 -91.9)"/><path class="cls-1" d="M354.05,253.53c-16.91,2.36-33.81,3.6-50.72,4.44-8.45.53-16.9.65-25.35,1l-25.36.31c-16.91,0-33.81-.42-50.72-1.25s-33.81-2.08-50.71-4.46c16.9-2.38,33.81-3.63,50.71-4.46s33.81-1.29,50.72-1.26l25.36.32c8.45.31,16.9.43,25.35,1C320.24,249.92,337.14,251.16,354.05,253.53Z" transform="translate(-79.7 -91.9)"/><path class="cls-1" d="M301.76,302.67c-9.47-6.91-18.33-14.43-27-22.16s-17-15.76-25.26-23.89-16.19-16.56-23.89-25.25a344.06,344.06,0,0,1-22.16-27,344.06,344.06,0,0,1,27,22.16c8.69,7.7,17,15.75,25.25,23.89S271.9,267,279.6,275.69,294.85,293.2,301.76,302.67Z" transform="translate(-79.7 -91.9)"/><path class="cls-1" d="M301.76,204.38c-6.91,9.47-14.43,18.34-22.16,27s-15.76,17-23.89,25.26-16.56,16.2-25.25,23.9a346.21,346.21,0,0,1-27,22.15,345.92,345.92,0,0,1,22.16-27c7.7-8.68,15.76-17,23.89-25.25s16.58-16.19,25.26-23.88S292.29,211.29,301.76,204.38Z" transform="translate(-79.7 -91.9)"/><circle class="cls-1" cx="172.92" cy="161.63" r="16.87"/><circle class="cls-2" cx="172.92" cy="161.63" r="44.3"/><path class="cls-1" d="M360,113.15c1.24,8.84,1.88,17.67,2.32,26.51.28,4.41.34,8.83.5,13.25l.16,13.25c0,8.84-.22,17.67-.65,26.5s-1.09,17.67-2.33,26.51c-1.25-8.84-1.9-17.67-2.33-26.51s-.68-17.66-.66-26.5l.17-13.25c.16-4.42.22-8.84.5-13.25C358.07,130.82,358.71,122,360,113.15Z" transform="translate(-79.7 -91.9)"/><path class="cls-1" d="M413,166.16c-8.84,1.24-17.67,1.88-26.51,2.32-4.42.28-8.83.34-13.25.5l-13.25.17q-13.26,0-26.5-.66c-8.84-.44-17.67-1.09-26.51-2.33,8.84-1.24,17.67-1.89,26.51-2.33s17.66-.67,26.5-.66l13.25.17c4.42.16,8.83.22,13.25.5C395.29,164.28,404.12,164.92,413,166.16Z" transform="translate(-79.7 -91.9)"/><path class="cls-1" d="M385.63,191.84c-4.95-3.61-9.58-7.54-14.1-11.58s-8.89-8.23-13.2-12.48-8.46-8.66-12.49-13.2a179.19,179.19,0,0,1-11.57-14.1,178.91,178.91,0,0,1,14.1,11.58c4.54,4,8.89,8.23,13.2,12.48s8.46,8.66,12.48,13.2S382,186.89,385.63,191.84Z" transform="translate(-79.7 -91.9)"/><path class="cls-1" d="M385.63,140.48c-3.61,5-7.54,9.58-11.58,14.1s-8.24,8.89-12.48,13.2-8.66,8.46-13.2,12.49a181,181,0,0,1-14.1,11.57,181,181,0,0,1,11.57-14.1c4-4.54,8.24-8.89,12.49-13.2s8.66-8.46,13.2-12.48S380.68,144.09,385.63,140.48Z" transform="translate(-79.7 -91.9)"/><circle class="cls-1" cx="280.25" cy="74.26" r="8.81"/><circle class="cls-3" cx="280.25" cy="74.26" r="23.15"/><path class="cls-1" d="M141,295.33c1.08,7.69,1.64,15.37,2,23.05.24,3.84.29,7.68.43,11.53l.15,11.52c0,7.68-.2,15.37-.57,23.05s-.95,15.37-2,23c-1.08-7.68-1.65-15.37-2-23s-.58-15.37-.57-23.05l.15-11.52c.14-3.85.19-7.69.43-11.53C139.34,310.7,139.9,303,141,295.33Z" transform="translate(-79.7 -91.9)"/><path class="cls-1" d="M187.08,341.43c-7.68,1.08-15.37,1.64-23.05,2-3.84.24-7.68.29-11.53.43L141,344q-11.52,0-23-.57c-7.68-.38-15.37-.95-23.05-2,7.68-1.08,15.37-1.65,23.05-2s15.37-.58,23-.57l11.52.15c3.85.14,7.69.19,11.53.43C171.71,339.79,179.4,340.36,187.08,341.43Z" transform="translate(-79.7 -91.9)"/><path class="cls-1" d="M163.32,363.77a157.26,157.26,0,0,1-12.27-10.08c-3.94-3.49-7.73-7.16-11.48-10.85s-7.36-7.53-10.86-11.48-6.93-8-10.07-12.26a157,157,0,0,1,12.27,10.06c4,3.5,7.73,7.17,11.48,10.86s7.35,7.54,10.85,11.48A157.26,157.26,0,0,1,163.32,363.77Z" transform="translate(-79.7 -91.9)"/><path class="cls-1" d="M163.32,319.1c-3.14,4.3-6.56,8.33-10.08,12.26s-7.16,7.73-10.85,11.48-7.53,7.36-11.48,10.86-8,6.93-12.27,10.07c3.14-4.31,6.56-8.34,10.07-12.27s7.16-7.73,10.86-11.48,7.54-7.35,11.48-10.85A157.14,157.14,0,0,1,163.32,319.1Z" transform="translate(-79.7 -91.9)"/><circle class="cls-1" cx="61.28" cy="249.53" r="7.67"/><circle class="cls-4" cx="61.28" cy="249.53" r="20.13"/><path class="cls-1" d="M228,91.9c.52,3.71.79,7.41,1,11.12.11,1.86.14,3.71.21,5.57l.07,5.56c0,3.71-.1,7.42-.28,11.12s-.45,7.42-1,11.13c-.52-3.71-.79-7.42-1-11.13s-.29-7.41-.28-11.12l.07-5.56c.07-1.86.09-3.71.21-5.57C227.24,99.31,227.52,95.61,228,91.9Z" transform="translate(-79.7 -91.9)"/><path class="cls-1" d="M250.28,114.15c-3.7.52-7.41.79-11.12,1-1.85.12-3.71.14-5.56.21l-5.57.07c-3.7,0-7.41-.09-11.12-.27s-7.42-.46-11.13-1c3.71-.52,7.42-.8,11.13-1s7.42-.28,11.12-.27l5.57.06c1.85.07,3.71.1,5.56.21C242.87,113.36,246.58,113.63,250.28,114.15Z" transform="translate(-79.7 -91.9)"/><path class="cls-1" d="M238.81,124.93c-2.07-1.52-4-3.17-5.91-4.86s-3.73-3.46-5.54-5.24-3.56-3.64-5.25-5.54-3.34-3.84-4.86-5.92a73.18,73.18,0,0,1,5.92,4.86c1.91,1.69,3.73,3.45,5.54,5.24s3.55,3.64,5.24,5.54A75,75,0,0,1,238.81,124.93Z" transform="translate(-79.7 -91.9)"/><path class="cls-1" d="M238.81,103.37a75,75,0,0,1-4.86,5.92c-1.69,1.9-3.45,3.73-5.24,5.54s-3.63,3.55-5.54,5.24a73.18,73.18,0,0,1-5.92,4.86c1.52-2.08,3.17-4,4.86-5.92s3.46-3.73,5.24-5.54,3.64-3.55,5.55-5.24A74.8,74.8,0,0,1,238.81,103.37Z" transform="translate(-79.7 -91.9)"/><circle class="cls-1" cx="148.34" cy="22.25" r="3.7"/><circle class="cls-5" cx="148.34" cy="22.25" r="9.72"/><path class="cls-1" d="M284.69,375.6c.52,3.71.79,7.42,1,11.13.11,1.85.14,3.7.21,5.56l.06,5.56c0,3.71-.09,7.42-.27,11.13s-.46,7.41-1,11.12c-.52-3.71-.79-7.42-1-11.12s-.28-7.42-.27-11.13l.07-5.56c.07-1.86.09-3.71.21-5.56C283.9,383,284.17,379.31,284.69,375.6Z" transform="translate(-79.7 -91.9)"/><path class="cls-1" d="M306.94,397.85c-3.71.52-7.42.79-11.12,1-1.86.11-3.71.14-5.57.21l-5.56.06c-3.71,0-7.42-.09-11.12-.27s-7.42-.46-11.13-1c3.71-.52,7.42-.79,11.13-1s7.41-.28,11.12-.27l5.56.07c1.86.07,3.71.09,5.57.21C299.52,397.06,303.23,397.33,306.94,397.85Z" transform="translate(-79.7 -91.9)"/><path class="cls-1" d="M295.47,408.63a75,75,0,0,1-5.92-4.86c-1.9-1.69-3.73-3.46-5.54-5.24s-3.55-3.63-5.24-5.54a75,75,0,0,1-4.86-5.92,75,75,0,0,1,5.92,4.86c1.91,1.69,3.73,3.46,5.54,5.24s3.55,3.64,5.24,5.54A75,75,0,0,1,295.47,408.63Z" transform="translate(-79.7 -91.9)"/><path class="cls-1" d="M295.47,387.07a75,75,0,0,1-4.86,5.92c-1.69,1.9-3.46,3.73-5.24,5.54s-3.63,3.55-5.54,5.24a75,75,0,0,1-5.92,4.86,75,75,0,0,1,4.86-5.92c1.69-1.9,3.46-3.73,5.24-5.54s3.64-3.55,5.54-5.24S293.39,388.59,295.47,387.07Z" transform="translate(-79.7 -91.9)"/><circle class="cls-1" cx="205" cy="305.95" r="3.7"/><circle class="cls-6" cx="205" cy="305.95" r="9.72"/><path class="cls-1" d="M340.5,311.58c.31,2.26.48,4.52.59,6.78.07,1.13.09,2.26.13,3.39l0,3.39c0,2.25-.06,4.51-.17,6.77s-.27,4.52-.59,6.78c-.32-2.26-.49-4.52-.6-6.78s-.17-4.52-.17-6.77l0-3.39c0-1.13.05-2.26.12-3.39C340,316.1,340.18,313.84,340.5,311.58Z" transform="translate(-79.7 -91.9)"/><path class="cls-1" d="M354.05,325.14c-2.26.31-4.52.48-6.78.59-1.13.07-2.26.09-3.38.13l-3.39,0q-3.39,0-6.78-.17c-2.26-.11-4.52-.28-6.77-.59,2.25-.32,4.51-.49,6.77-.6s4.52-.17,6.78-.17l3.39,0c1.12,0,2.25.06,3.38.13C349.53,324.65,351.79,324.82,354.05,325.14Z" transform="translate(-79.7 -91.9)"/><path class="cls-1" d="M347.06,331.7c-1.26-.92-2.45-1.93-3.6-3s-2.27-2.1-3.38-3.19-2.16-2.21-3.19-3.37-2-2.34-3-3.61c1.27.92,2.45,1.93,3.61,3s2.27,2.1,3.37,3.19,2.16,2.22,3.19,3.38A44.57,44.57,0,0,1,347.06,331.7Z" transform="translate(-79.7 -91.9)"/><path class="cls-1" d="M347.06,318.57a44.57,44.57,0,0,1-3,3.6c-1,1.16-2.1,2.28-3.19,3.38s-2.21,2.16-3.37,3.19-2.34,2-3.61,3a45,45,0,0,1,3-3.6c1-1.16,2.11-2.28,3.19-3.38s2.22-2.16,3.38-3.19S345.8,319.49,347.06,318.57Z" transform="translate(-79.7 -91.9)"/><circle class="cls-1" cx="260.8" cy="233.24" r="2.25"/><circle class="cls-7" cx="260.8" cy="233.24" r="5.92"/><path class="cls-1" d="M170.21,162.56c.31,2.25.48,4.51.59,6.77.07,1.13.09,2.26.13,3.39l0,3.39q0,3.39-.17,6.77c-.11,2.26-.28,4.52-.59,6.78-.32-2.26-.49-4.52-.6-6.78s-.17-4.51-.17-6.77l0-3.39c.05-1.13.06-2.26.13-3.39C169.72,167.07,169.89,164.81,170.21,162.56Z" transform="translate(-79.7 -91.9)"/><path class="cls-1" d="M183.76,176.11c-2.26.31-4.52.48-6.78.59-1.13.07-2.26.09-3.39.13l-3.38,0c-2.26,0-4.52-.06-6.78-.17s-4.52-.27-6.78-.59c2.26-.32,4.52-.49,6.78-.6s4.52-.17,6.78-.17l3.38,0c1.13,0,2.26.05,3.39.12C179.24,175.63,181.5,175.79,183.76,176.11Z" transform="translate(-79.7 -91.9)"/><path class="cls-1" d="M176.77,182.67a44.57,44.57,0,0,1-3.6-3c-1.16-1-2.27-2.1-3.38-3.19s-2.16-2.21-3.19-3.37-2-2.34-3-3.61c1.27.92,2.45,1.93,3.61,3s2.27,2.11,3.37,3.19,2.16,2.22,3.19,3.38S175.85,181.41,176.77,182.67Z" transform="translate(-79.7 -91.9)"/><path class="cls-1" d="M176.77,169.54c-.92,1.27-1.93,2.45-3,3.61s-2.1,2.27-3.19,3.37-2.21,2.17-3.37,3.19a44.72,44.72,0,0,1-3.61,3c.92-1.26,1.93-2.45,3-3.6s2.11-2.27,3.19-3.38,2.22-2.16,3.38-3.19S175.51,170.46,176.77,169.54Z" transform="translate(-79.7 -91.9)"/><circle class="cls-1" cx="90.51" cy="84.21" r="2.25"/><circle class="cls-8" cx="90.51" cy="84.21" r="5.92"/><path class="cls-1" d="M108.43,183.78c.67,4.79,1,9.58,1.26,14.37.15,2.39.18,4.79.27,7.18l.09,7.18c0,4.79-.12,9.58-.35,14.37s-.59,9.58-1.27,14.37c-.67-4.79-1-9.58-1.26-14.37s-.37-9.58-.36-14.37l.09-7.18c.09-2.39.12-4.79.27-7.18C107.41,193.36,107.76,188.57,108.43,183.78Z" transform="translate(-79.7 -91.9)"/><path class="cls-1" d="M137.17,212.51c-4.79.68-9.58,1-14.37,1.26-2.39.15-4.79.19-7.18.27l-7.19.09c-4.79,0-9.58-.12-14.37-.35s-9.57-.59-14.36-1.27c4.79-.67,9.57-1,14.36-1.26s9.58-.36,14.37-.35l7.19.09c2.39.08,4.79.12,7.18.27C127.59,211.49,132.38,211.84,137.17,212.51Z" transform="translate(-79.7 -91.9)"/><path class="cls-1" d="M122.36,226.44c-2.69-2-5.2-4.09-7.65-6.28s-4.82-4.46-7.15-6.77-4.59-4.69-6.77-7.15a94.57,94.57,0,0,1-6.28-7.65c2.69,2,5.2,4.09,7.65,6.28s4.81,4.46,7.15,6.77,4.59,4.69,6.77,7.15S120.4,223.75,122.36,226.44Z" transform="translate(-79.7 -91.9)"/><path class="cls-1" d="M122.36,198.59c-2,2.68-4.09,5.2-6.28,7.65s-4.47,4.81-6.77,7.15-4.69,4.59-7.15,6.77-5,4.32-7.65,6.28a94.57,94.57,0,0,1,6.28-7.65c2.18-2.46,4.46-4.82,6.77-7.15s4.69-4.59,7.15-6.77S119.67,200.55,122.36,198.59Z" transform="translate(-79.7 -91.9)"/><circle class="cls-1" cx="28.74" cy="120.62" r="4.78"/><circle class="cls-9" cx="28.74" cy="120.62" r="12.55"/><path class="cls-1" d="M403.57,253.53c.67,4.79,1,9.58,1.26,14.37.15,2.39.18,4.79.27,7.18l.09,7.18c0,4.79-.12,9.58-.36,14.37s-.59,9.58-1.26,14.37c-.68-4.79-1-9.58-1.27-14.37s-.36-9.58-.35-14.37l.09-7.18c.08-2.39.12-4.79.27-7.18C402.55,263.11,402.9,258.32,403.57,253.53Z" transform="translate(-79.7 -91.9)"/><path class="cls-1" d="M432.3,282.26c-4.79.68-9.57,1-14.36,1.26-2.4.15-4.79.19-7.19.27l-7.18.09c-4.79,0-9.58-.12-14.37-.35s-9.58-.59-14.37-1.27c4.79-.67,9.58-1,14.37-1.26s9.58-.36,14.37-.35l7.18.09c2.4.08,4.79.12,7.19.27C422.73,281.24,427.51,281.59,432.3,282.26Z" transform="translate(-79.7 -91.9)"/><path class="cls-1" d="M417.49,296.19c-2.68-2-5.19-4.09-7.64-6.28s-4.82-4.46-7.16-6.77-4.59-4.69-6.77-7.15-4.32-5-6.28-7.65c2.69,2,5.2,4.09,7.65,6.28s4.82,4.46,7.15,6.77,4.59,4.69,6.77,7.15S415.53,293.5,417.49,296.19Z" transform="translate(-79.7 -91.9)"/><path class="cls-1" d="M417.49,268.34c-2,2.68-4.09,5.2-6.28,7.65s-4.46,4.81-6.77,7.15-4.69,4.59-7.15,6.77-5,4.32-7.65,6.28c2-2.69,4.09-5.2,6.28-7.65s4.46-4.82,6.77-7.15,4.7-4.59,7.16-6.77S414.81,270.3,417.49,268.34Z" transform="translate(-79.7 -91.9)"/><circle class="cls-1" cx="323.87" cy="190.37" r="4.78"/><circle class="cls-10" cx="323.87" cy="190.37" r="12.55"/></svg>