<svg version="1.2" xmlns="http://www.w3.org/2000/svg" viewBox="0 0 1152 1152" width="1152" height="1152">
	<title>6533-ai</title>
	<style>
		.s0 { fill: #000000 } 
	</style>
	<g id="_Artboards_">
	</g>
	<g id="Layer 1">
		<g id="&lt;Group&gt;">
			<g id="&lt;Group&gt;">
				<g id="&lt;Group&gt;">
				</g>
				<g id="&lt;Group&gt;">
				</g>
				<g id="&lt;Group&gt;">
				</g>
				<g id="&lt;Group&gt;">
					<path id="&lt;Path&gt;" class="s0" d="m323 78.9c-3.9 0-7.6-1.4-10.6-4-3.2-2.9-5.1-6.8-5.4-11.1-0.2-4.3 1.2-8.4 4-11.6 2.9-3.3 6.8-5.2 11.1-5.4l0.3 4.2c-3.2 0.1-6.1 1.6-8.2 3.9-2.1 2.4-3.2 5.5-3 8.6 0.2 3.2 1.6 6.1 4 8.2 2.4 2.1 5.4 3.2 8.6 3l0.2 4.2q-0.5 0-1 0z"/>
				</g>
				<g id="&lt;Group&gt;">
					<path id="&lt;Path&gt;" class="s0" d="m1109 620.2l-3.3-4.5c3.4-2.5 5.7-6.2 6.3-10.4 0.7-4.2-0.3-8.5-2.8-11.9-5.2-7.1-15.2-8.7-22.3-3.5l-3.3-4.5c9.6-7 23.1-4.9 30.1 4.7 3.4 4.6 4.8 10.3 3.9 16-0.9 5.7-4 10.7-8.6 14.1z"/>
				</g>
				<g id="&lt;Group&gt;">
					<path id="&lt;Path&gt;" class="s0" d="m647.1 731.9l-4.6-7.1c11.1-7.2 14.4-22.1 7.2-33.2-7.2-11.2-22.1-14.4-33.2-7.2l-4.6-7.2c15.1-9.6 35.2-5.3 44.9 9.8 9.7 15.1 5.3 35.2-9.7 44.9z"/>
				</g>
				<g id="&lt;Group&gt;">
					<path id="&lt;Path&gt;" class="s0" d="m42.5 140.6c-5.5 0-10.9-2.7-14.1-7.7l3.7-2.3c1.7 2.7 4.4 4.7 7.6 5.4 3.2 0.7 6.5 0.1 9.3-1.6 5.7-3.6 7.4-11.2 3.8-16.9l3.7-2.3c4.8 7.8 2.5 18-5.2 22.9-2.8 1.7-5.8 2.5-8.8 2.5z"/>
				</g>
				<g id="&lt;Group&gt;">
					<path id="&lt;Path&gt;" class="s0" d="m1067.4 233.7c-3.6-4.5-5.2-10.1-4.5-15.8 0.6-5.7 3.4-10.8 7.9-14.4 9.3-7.4 22.8-5.9 30.2 3.3l-4.4 3.5c-5.4-6.8-15.4-7.9-22.3-2.4-3.3 2.6-5.4 6.4-5.9 10.6-0.4 4.2 0.8 8.4 3.4 11.7z"/>
				</g>
				<g id="&lt;Group&gt;">
				</g>
				<path id="&lt;Compound Path&gt;" fill-rule="evenodd" class="s0" d="m965.7 75.8c4.7 9.1 1 20.2-8.1 24.8-2.7 1.4-5.5 2-8.3 2-6.8 0-13.3-3.7-16.6-10.1-4.6-9.1-0.9-20.3 8.2-24.9 2.7-1.3 5.5-2 8.3-2 6.8 0 13.3 3.7 16.5 10.2zm-22.2-3.1c-6.3 3.2-8.9 10.9-5.7 17.2 2.2 4.3 6.6 7 11.5 7q3 0 5.7-1.4c3.1-1.5 5.3-4.2 6.4-7.4 1.1-3.2 0.8-6.7-0.7-9.8-2.2-4.3-6.6-7-11.5-7q-3 0-5.7 1.4z"/>
				<path id="&lt;Compound Path&gt;" fill-rule="evenodd" class="s0" d="m502.2 55c11.7 5.3 16.9 19.2 11.6 30.9-3.9 8.5-12.4 13.6-21.3 13.6-3.2 0-6.5-0.7-9.6-2.1-11.7-5.3-16.9-19.1-11.5-30.8 3.9-8.6 12.3-13.7 21.2-13.7 3.2 0 6.5 0.7 9.6 2.1zm-24.3 14.6c-3.7 8-0.1 17.6 8 21.3 2.1 0.9 4.3 1.4 6.6 1.4 6.3 0 12.1-3.7 14.7-9.4 1.8-3.9 1.9-8.3 0.4-12.3-1.5-4.1-4.5-7.3-8.4-9-2.1-1-4.3-1.5-6.6-1.5-6.3 0-12.1 3.7-14.7 9.5z"/>
				<path id="&lt;Compound Path&gt;" fill-rule="evenodd" class="s0" d="m89.9 1046.4c4.7 6.2 3.5 15-2.7 19.7-2.5 1.9-5.5 2.9-8.5 2.9-4.2 0-8.4-1.9-11.2-5.6-4.7-6.2-3.5-15 2.7-19.7 2.6-1.9 5.6-2.8 8.5-2.8 4.3 0 8.5 1.9 11.2 5.5zm-17.1 0.8c-2 1.6-3.4 3.8-3.7 6.4-0.4 2.6 0.3 5.1 1.9 7.2 1.8 2.4 4.7 3.8 7.7 3.8 2.2 0 4.2-0.6 5.9-1.9 2.1-1.6 3.4-3.9 3.8-6.5 0.3-2.5-0.4-5.1-1.9-7.2-1.9-2.4-4.7-3.8-7.8-3.8-2.1 0-4.1 0.7-5.9 2z"/>
				<path id="&lt;Compound Path&gt;" fill-rule="evenodd" class="s0" d="m560.9 1007.5c7.2 3.5 10.1 12.2 6.6 19.4-2.5 5.1-7.7 8.1-13 8.1-2.2 0-4.4-0.5-6.4-1.5-7.2-3.5-10.2-12.2-6.7-19.4 2.6-5.2 7.7-8.1 13.1-8.1 2.1 0 4.3 0.4 6.4 1.5zm-15.4 8.6c-2.5 4.9-0.4 10.9 4.5 13.4q2.1 1 4.5 1c3.8 0 7.3-2.1 9-5.6 1.2-2.4 1.3-5.1 0.5-7.6-0.9-2.6-2.7-4.6-5.1-5.8q-2.1-1.1-4.4-1.1c-3.9 0-7.3 2.2-9 5.7z"/>
				<path id="&lt;Compound Path&gt;" fill-rule="evenodd" class="s0" d="m81.2 794.7l-6.6 38.6-26.9-28.4 6.6-38.7zm-27.2 8.2l16.7 17.7 4.1-23.9-16.6-17.7z"/>
				<path id="&lt;Compound Path&gt;" fill-rule="evenodd" class="s0" d="m988.6 1037.4l10.7 57.3-52.2-25.9-10.7-57.2zm-33.6 25.4l32.3 16-6.6-35.4-32.3-16z"/>
				<path id="&lt;Compound Path&gt;" fill-rule="evenodd" class="s0" d="m362.4 580.8l4.3 31.1-27.5-15.2-4.3-31.2zm-18.8 12.9l17 9.4-2.6-19.2-17.1-9.5z"/>
				<path id="&lt;Compound Path&gt;" fill-rule="evenodd" class="s0" d="m406.8 1086.8l-28.8 5.5 12.8-26.4 28.8-5.5zm-12.9-16.8l-7.9 16.3 17.8-3.5 8-16.3z"/>
				<g id="&lt;Group&gt;">
				</g>
				<g id="&lt;Group&gt;">
					<path id="&lt;Path&gt;" class="s0" d="m876.5 463.5q0 0-0.1 0c-1.5-0.1-2.6-1.3-2.6-2.8 0.1-1.9-0.6-3.6-1.8-4.9-1.3-1.3-3.1-1.9-5-1.8-3.4 0.2-6.6-1-9-3.3-2.4-2.3-3.6-5.5-3.5-8.9 0.1-1.9-0.6-3.7-1.9-4.9-1.3-1.3-3-1.9-4.9-1.8-1.5 0-2.8-1.1-2.8-2.5-0.1-1.5 1-2.8 2.5-2.9 3.4-0.1 6.6 1 9 3.3 2.4 2.4 3.6 5.5 3.5 9-0.1 1.9 0.6 3.6 1.8 4.9 1.3 1.2 3.1 1.9 5 1.8 3.5-0.2 6.6 0.9 9 3.3 2.4 2.3 3.6 5.5 3.5 8.9-0.1 1.4-1.3 2.6-2.7 2.6z"/>
				</g>
				<g id="&lt;Group&gt;">
				</g>
				<g id="&lt;Group&gt;">
				</g>
				<g id="&lt;Group&gt;">
					<path id="&lt;Path&gt;" class="s0" d="m77.2 599.5c-1 0-2-0.4-2.8-1.2-3.5-3.6-5.3-8.2-5-13.1 0.2-4.8 2.6-9.3 6.5-12.4 2.1-1.8 3.4-4.2 3.6-6.8 0.1-2.7-0.9-5.2-2.8-7.2-3.6-3.6-5.4-8.3-5.1-13.2 0.3-4.8 2.6-9.2 6.5-12.4 1.7-1.4 4.2-1.1 5.5 0.6 1.4 1.7 1.1 4.1-0.5 5.5-2.2 1.8-3.5 4.2-3.6 6.8-0.2 2.6 0.8 5.2 2.8 7.2 3.5 3.6 5.3 8.2 5 13.1-0.3 4.9-2.6 9.3-6.5 12.5-2.2 1.7-3.5 4.1-3.6 6.8-0.2 2.6 0.8 5.2 2.8 7.2 1.5 1.5 1.5 4-0.1 5.5-0.7 0.7-1.7 1.1-2.7 1.1z"/>
				</g>
				<g id="&lt;Group&gt;">
				</g>
				<g id="&lt;Group&gt;">
				</g>
				<g id="&lt;Group&gt;">
					<path id="&lt;Path&gt;" class="s0" d="m283.7 323.5c-1.2 0-2.4-0.9-2.7-2.2-0.3-1.5 0.6-3 2.1-3.3l24.1-5.6c1.5-0.3 3 0.6 3.4 2.1 0.3 1.5-0.6 3-2.1 3.4l-24.1 5.5q-0.3 0.1-0.7 0.1z"/>
				</g>
				<g id="&lt;Group&gt;">
					<path id="&lt;Path&gt;" class="s0" d="m784.1 111.1c-1.2 0-2.3-0.8-2.6-2-0.3-1.5 0.5-2.9 2-3.2l22.8-5.5c1.4-0.4 2.8 0.5 3.2 1.9 0.3 1.5-0.6 2.9-2 3.2l-22.8 5.5q-0.3 0.1-0.6 0.1z"/>
				</g>
				<g id="&lt;Group&gt;">
					<path id="&lt;Path&gt;" class="s0" d="m1087.3 1000.9c-1 0-2-0.7-2.3-1.9l-5-20.9c-0.3-1.3 0.5-2.6 1.8-2.9 1.3-0.3 2.6 0.5 2.9 1.8l5 20.9c0.3 1.3-0.5 2.6-1.8 2.9q-0.3 0.1-0.6 0.1z"/>
				</g>
				<g id="&lt;Group&gt;">
				</g>
				<g id="&lt;Group&gt;">
				</g>
				<g id="&lt;Group&gt;">
				</g>
				<g id="&lt;Group&gt;">
				</g>
				<g id="&lt;Group&gt;">
				</g>
				<g id="&lt;Group&gt;">
					<path id="&lt;Path&gt;" class="s0" d="m690.9 404.7l-4-22.9-22.9 4-1-5.6 28.6-5 4.9 28.5z"/>
				</g>
				<g id="&lt;Group&gt;">
					<path id="&lt;Path&gt;" class="s0" d="m822.5 1110.3l-12.2-22.8-22.8 12.1-3-5.6 28.4-15.1 15.2 28.4z"/>
				</g>
			</g>
		</g>
	</g>
</svg>